<svg xmlns="http://www.w3.org/2000/svg" width="167.555" height="53.319" viewBox="0 0 167.555 53.319">
  <g id="Group_4" data-name="Group 4" transform="translate(-435.445 377)">
    <g id="Group_2" data-name="Group 2" transform="translate(435.445 -377)">
      <path id="Path_8" data-name="Path 8" d="M186.458,142.677v3.153h5.388v-7.838a2.452,2.452,0,0,0-2.452-2.452h-7.838v5.5h3.269A1.635,1.635,0,0,1,186.458,142.677Z" transform="translate(-155.97 -135.539)" fill="#f36813"/>
      <path id="Path_9" data-name="Path 9" d="M191.561,148.71V170.8a12.551,12.551,0,0,1-12.55,12.551h0A12.552,12.552,0,0,1,166.459,170.8V142.677a1.635,1.635,0,0,1,1.635-1.635h15.682v-5.5H163.525a2.452,2.452,0,0,0-2.452,2.452V170.92a17.937,17.937,0,0,0,17.938,17.938h0a17.937,17.937,0,0,0,17.938-17.938V148.71Z" transform="translate(-161.073 -135.539)" fill="#0d123c"/>
    </g>
    <g id="Group_3" data-name="Group 3" transform="translate(481.661 -352.156)">
      <path id="Path_10" data-name="Path 10" d="M200.833,168.827a6.975,6.975,0,0,0,1.129,4.18,4.654,4.654,0,0,0,6.946,0,7.022,7.022,0,0,0,1.118-4.18v-8.42h3.5v8.908a9.439,9.439,0,0,1-.945,4.312,6.92,6.92,0,0,1-2.746,2.919,9.742,9.742,0,0,1-8.786,0,6.914,6.914,0,0,1-2.746-2.919,9.439,9.439,0,0,1-.945-4.312v-8.908h3.478Z" transform="translate(-197.355 -149.119)" fill="#0d123c"/>
      <path id="Path_11" data-name="Path 11" d="M227.374,159.9a7.814,7.814,0,0,1,3.2.692,5.979,5.979,0,0,1,2.562,2.186,6.85,6.85,0,0,1,1.007,3.9v10.413h-3.58v-9.722a4.859,4.859,0,0,0-1.16-3.61,4.1,4.1,0,0,0-2.989-1.13,4.347,4.347,0,0,0-2.308.682,5.406,5.406,0,0,0-1.82,1.87,5.147,5.147,0,0,0-.712,2.7v9.213h-3.539v-16.7h3.539v2.969a3.553,3.553,0,0,1,1-1.5,6.934,6.934,0,0,1,2.075-1.383A6.55,6.55,0,0,1,227.374,159.9Z" transform="translate(-198.086 -149.101)" fill="#0d123c"/>
      <path id="Path_12" data-name="Path 12" d="M240.683,154.311a2.325,2.325,0,0,1-2.319-2.318,2.265,2.265,0,0,1,.681-1.648,2.277,2.277,0,0,1,2.807-.367,2.585,2.585,0,0,1,.864.844,2.157,2.157,0,0,1,.325,1.17,2.217,2.217,0,0,1-.692,1.637A2.289,2.289,0,0,1,240.683,154.311Zm-1.811,22.413v-16.7h3.539v16.7Z" transform="translate(-198.805 -148.739)" fill="#0d123c"/>
      <path id="Path_13" data-name="Path 13" d="M245.637,160.156h3.275V153.3h3.519v6.855h4.291v3.03h-4.291v8.258a3.6,3.6,0,0,0,.518,2.156,1.651,1.651,0,0,0,1.393.692,2.16,2.16,0,0,0,1.2-.285,2.959,2.959,0,0,0,.509-.387l1.4,2.6a5.412,5.412,0,0,1-.652.386,6.424,6.424,0,0,1-1.362.508,7.572,7.572,0,0,1-1.953.224,4.677,4.677,0,0,1-3.263-1.189,4.86,4.86,0,0,1-1.312-3.773v-9.194h-3.275Z" transform="translate(-199.062 -148.868)" fill="#0d123c"/>
      <path id="Path_14" data-name="Path 14" d="M262.192,169.461a6.18,6.18,0,0,0,.651,2.745,4.745,4.745,0,0,0,1.881,1.973,6.016,6.016,0,0,0,3.082.732,6.79,6.79,0,0,0,2.633-.457,6.064,6.064,0,0,0,1.781-1.1,5.594,5.594,0,0,0,1-1.149l1.73,2.136a7.409,7.409,0,0,1-1.637,1.708,7.082,7.082,0,0,1-2.35,1.129,12.407,12.407,0,0,1-3.376.4,9.038,9.038,0,0,1-4.648-1.149,7.755,7.755,0,0,1-3.02-3.193,10.066,10.066,0,0,1-1.057-4.688,9.585,9.585,0,0,1,1-4.4,7.509,7.509,0,0,1,2.9-3.1,8.759,8.759,0,0,1,4.586-1.139,8.573,8.573,0,0,1,4.282,1.027,7.15,7.15,0,0,1,2.827,2.9,9.333,9.333,0,0,1,1.006,4.475c0,.108-.007.3-.02.58s-.027.471-.04.58Zm9.886-2.665a4.7,4.7,0,0,0-.478-1.83,4.251,4.251,0,0,0-1.474-1.708,4.71,4.71,0,0,0-2.746-.712,5.3,5.3,0,0,0-2.878.692,4.377,4.377,0,0,0-1.6,1.678,5.135,5.135,0,0,0-.59,1.881Z" transform="translate(-199.53 -149.101)" fill="#0d123c"/>
      <path id="Path_15" data-name="Path 15" d="M278.971,176.691V148.705h3.58v14.42a3.235,3.235,0,0,1,.955-1.485,7.345,7.345,0,0,1,2.237-1.5,7.712,7.712,0,0,1,3.234-.641,7.641,7.641,0,0,1,7.006,4.2,10.833,10.833,0,0,1,0,9.3,7.749,7.749,0,0,1-2.856,3.081,7.845,7.845,0,0,1-4.15,1.1,7.287,7.287,0,0,1-3.123-.65A7.877,7.877,0,0,1,283.588,175a4.235,4.235,0,0,1-1.1-1.566v3.254Zm14.542-8.338a6.365,6.365,0,0,0-.732-3.132,5.412,5.412,0,0,0-1.943-2.055,5.029,5.029,0,0,0-2.655-.732,5.574,5.574,0,0,0-2.847.743,5.444,5.444,0,0,0-2.034,2.074,6.777,6.777,0,0,0,0,6.2,5.364,5.364,0,0,0,2.034,2.064,5.633,5.633,0,0,0,2.847.732,5.082,5.082,0,0,0,2.655-.722,5.34,5.34,0,0,0,1.943-2.044A6.368,6.368,0,0,0,293.513,168.353Z" transform="translate(-200.241 -148.705)" fill="#0d123c"/>
      <path id="Path_16" data-name="Path 16" d="M302.289,154.311a2.327,2.327,0,0,1-2.319-2.318,2.262,2.262,0,0,1,.682-1.648,2.276,2.276,0,0,1,2.806-.367,2.584,2.584,0,0,1,.864.844,2.156,2.156,0,0,1,.325,1.17,2.219,2.219,0,0,1-.691,1.637A2.289,2.289,0,0,1,302.289,154.311Zm-1.811,22.413v-16.7h3.539v16.7Z" transform="translate(-200.983 -148.739)" fill="#0d123c"/>
      <path id="Path_17" data-name="Path 17" d="M308,160.407h14.563l-9.987,14.013h9.58V177.1h-15.3l9.987-14.034H308Z" transform="translate(-201.227 -149.119)" fill="#0d123c"/>
    </g>
  </g>
</svg>
