<svg version="1.2" xmlns="http://www.w3.org/2000/svg" viewBox="0 0 48 43" width="48" height="43">
	<title>career_942818-svg</title>
	<style>
		.s0 { fill: #f36911 } 
	</style>
	<g id="career_942818">
		<g id="Group_12732">
			<g id="Group_12731">
				<path id="Path_3840" class="s0" d="m42.1 16.3q-0.1-0.4-0.4-0.6-0.3-0.2-0.7-0.1-0.4 0.1-0.6 0.4-0.2 0.3-0.1 0.7 0.1 0.4 0.4 0.6 0.4 0.2 0.7 0.1 0.4-0.1 0.6-0.4 0.2-0.3 0.1-0.7z"/>
			</g>
		</g>
		<g id="Group_12734">
			<g id="Group_12733">
				<path id="Path_3841" class="s0" d="m17.4 27.9q-1.1-0.7-1.9-1.7-0.9-1-1.3-2.2-0.5-1.2-0.5-2.5 0-1.3 0.4-2.6 0.1-0.3 0-0.7-0.2-0.3-0.6-0.5-0.3-0.1-0.7 0.1-0.3 0.2-0.5 0.5-0.5 1.6-0.5 3.2 0.1 1.6 0.6 3.1 0.6 1.6 1.6 2.8 1.1 1.3 2.5 2.1 0.3 0.2 0.7 0.1 0.3-0.1 0.5-0.4 0.2-0.3 0.1-0.7c0-0.3-0.2-0.5-0.4-0.6z"/>
			</g>
		</g>
		<g id="Group_12736">
			<g id="Group_12735">
				<path id="Path_3842" class="s0" d="m27.9 14.4q-1-0.9-2.2-1.5-1.1-0.6-2.4-0.9-1.4-0.2-2.7-0.1-1.3 0.1-2.6 0.5-0.3 0.2-0.5 0.5-0.1 0.4 0 0.7 0.1 0.4 0.5 0.6 0.3 0.1 0.7 0 1-0.4 2.1-0.5 1 0 2.1 0.2 1 0.2 2 0.7 0.9 0.5 1.7 1.2 0.3 0.3 0.7 0.3 0.4-0.1 0.6-0.3 0.3-0.3 0.3-0.7 0-0.4-0.3-0.7z"/>
			</g>
		</g>
		<g id="Group_12738">
			<g id="Group_12737">
				<path id="Path_3843" fill-rule="evenodd" class="s0" d="m47.2 21.7q0.2 0.1 0.3 0.2 0.1 0.2 0.2 0.3 0.1 0.2 0.1 0.4v5.7q0 0.3-0.1 0.6 0 0.3-0.2 0.6-0.1 0.3-0.2 0.6-0.2 0.2-0.4 0.5v10q0 0.4-0.2 0.8-0.2 0.4-0.4 0.7-0.3 0.3-0.7 0.5-0.4 0.1-0.9 0.1h-23.3c-3.8 0-7.5-1-10.8-2.9-3.2-1.9-5.9-4.6-7.8-7.8-1.9-3.3-2.8-7-2.8-10.8 0-3.8 1-7.4 3-10.7l-2.7-2.7q-0.2-0.2-0.3-0.5 0-0.2 0.1-0.5 0.1-0.3 0.3-0.4 0.3-0.2 0.5-0.2h5.3v-5.3q0-0.2 0.2-0.5 0.2-0.2 0.4-0.3 0.3-0.1 0.6-0.1 0.2 0.1 0.4 0.3l2.7 2.7c2.6-1.6 5.5-2.5 8.4-2.9 3-0.3 6 0 8.8 0.9 2.9 0.9 5.5 2.3 7.7 4.3 2.3 2 4.1 4.4 5.4 7.1q0.1 0.3 0 0.7-0.2 0.4-0.5 0.5-0.4 0.2-0.7 0.1-0.4-0.2-0.5-0.5c-1.2-2.5-2.8-4.6-4.8-6.4-2-1.8-4.3-3.1-6.9-4-2.5-0.8-5.2-1.1-7.9-0.8-2.7 0.2-5.3 1-7.6 2.3l3.1 3.2q0.1 0 0.2 0.1 0 0.1 0 0.2 0.1 0.1 0.1 0.1 0 0.1 0 0.2v5.9l5.8 5.8q0.2 0.2 0.2 0.6 0 0.4-0.2 0.7-0.3 0.2-0.7 0.2-0.4 0-0.6-0.2l-5.8-5.8h-5.9q-0.1 0-0.1 0-0.1 0-0.2-0.1-0.1 0-0.2 0-0.1-0.1-0.1-0.2l-3.2-3.1c-1.6 2.9-2.5 6.3-2.4 9.6 0 3.4 0.9 6.7 2.6 9.6 1.7 3 4.1 5.4 7 7.1 2.9 1.7 6.2 2.6 9.6 2.7q0-0.1 0-0.1 0 0 0-0.1 0 0 0 0 0-0.1 0-0.1v-3.4c-2.3 0-4.6-0.6-6.7-1.6-2.1-1-3.9-2.5-5.4-4.3-1.5-1.8-2.5-3.9-3-6.2-0.6-2.3-0.6-4.6-0.2-6.9q0.1-0.4 0.4-0.6 0.3-0.2 0.7-0.2 0.4 0.1 0.6 0.4 0.2 0.4 0.2 0.8c-0.5 2-0.4 4 0.1 6 0.4 2 1.4 3.9 2.6 5.5 1.3 1.6 2.9 2.9 4.8 3.8 1.8 0.9 3.9 1.4 5.9 1.5v-4.8q-0.2-0.3-0.4-0.5-0.1-0.3-0.3-0.6-0.1-0.3-0.1-0.6-0.1-0.3-0.1-0.6v-5.7q0-0.2 0.1-0.4 0-0.2 0.2-0.3 0.1-0.1 0.3-0.2 0.2-0.1 0.3-0.1h7.1v-1.9q0-0.3 0.1-0.6 0.1-0.3 0.4-0.6 0.2-0.2 0.5-0.4 0.3-0.1 0.7-0.1h5.1c-0.5-1.7-1.2-3.3-2.2-4.8-1.1-1.4-2.4-2.6-3.8-3.6-1.5-0.9-3.2-1.6-4.9-2-1.7-0.3-3.5-0.3-5.2 0q-0.4 0.1-0.7-0.2-0.4-0.2-0.4-0.6-0.1-0.3 0.1-0.7 0.2-0.3 0.6-0.3c2-0.4 4.1-0.4 6.1 0 2 0.4 3.9 1.2 5.6 2.4 1.7 1.1 3.1 2.6 4.3 4.2 1.1 1.7 1.9 3.6 2.4 5.6h1.2q0.4 0 0.7 0.1 0.3 0.2 0.5 0.4 0.3 0.3 0.4 0.6 0.1 0.3 0.1 0.6v1.9h7q0.2 0 0.4 0.1zm-39.1-14.9l5.4 5.3v-3.6l-5.4-5.3zm-4.9 1.3l5.3 5.4h3.6l-5.3-5.4zm26.8 13.6h8v-1.8h-8zm15 9.9q-0.1 0-0.1 0-0.1 0-0.2 0 0 0.1-0.1 0.1-0.1 0-0.1 0h-7.7c-0.1 0.6-0.4 1.3-1 1.7-0.5 0.5-1.1 0.7-1.8 0.7-0.7 0-1.3-0.2-1.9-0.7-0.5-0.4-0.8-1.1-0.9-1.7h-7.7q0 0-0.1 0-0.1 0-0.1 0-0.1-0.1-0.2-0.1-0.1 0-0.1 0v9q0 0.1 0 0.1 0 0.1 0 0.1 0.1 0.1 0.1 0.1 0.1 0 0.1 0h21.6q0 0 0.1 0 0 0 0-0.1 0.1 0 0.1-0.1 0 0 0-0.1v-2.3h-6.1q-0.4 0-0.7-0.3-0.2-0.3-0.2-0.6 0-0.4 0.2-0.7 0.3-0.3 0.7-0.3h6.1c0 0 0-4.8 0-4.8zm-11.7 0.4q0.3 0.2 0.7 0.3 0.4-0.1 0.6-0.3 0.3-0.3 0.3-0.7v-1.6h-1.8v1.6q0 0.4 0.2 0.7zm12.6-8.4h-23.8v4.7q0 0.3 0.1 0.6 0.1 0.3 0.3 0.5 0.2 0.2 0.5 0.3 0.2 0.1 0.5 0.1h7.7v-0.9q0-0.2 0.1-0.4 0.1-0.2 0.2-0.3 0.2-0.2 0.4-0.3 0.2-0.1 0.4-0.1h3.4q0.2 0 0.4 0.1 0.2 0.1 0.4 0.3 0.1 0.1 0.2 0.3 0.1 0.2 0.1 0.4v0.9h7.7q0.2 0 0.5-0.1 0.3-0.1 0.5-0.3 0.2-0.2 0.3-0.5 0.1-0.3 0.1-0.6c0 0 0-4.7 0-4.7z"/>
			</g>
		</g>
		<g id="Group_12740">
			<g id="Group_12739">
				<path id="Path_3844" class="s0" d="m35 36.7c-0.3-0.4-0.8-0.4-1.2-0.2-0.4 0.3-0.5 0.8-0.3 1.2 0.1 0.4 0.6 0.6 1 0.5 0.4-0.1 0.7-0.4 0.7-0.9q0-0.1 0-0.2 0-0.1 0-0.1-0.1-0.1-0.1-0.2-0.1-0.1-0.1-0.1z"/>
			</g>
		</g>
	</g>
</svg>