<svg xmlns="http://www.w3.org/2000/svg" width="25.991" height="19.466" viewBox="0 0 25.991 19.466">
  <g id="email_2099199" transform="translate(0 -64.266)">
    <path id="Path_18" data-name="Path 18" d="M15.168,178.625a3.909,3.909,0,0,1-4.344,0l-10.651-7.1Q.084,171.466,0,171.4v11.635a2.392,2.392,0,0,0,2.393,2.393H23.6a2.392,2.392,0,0,0,2.393-2.393V171.4c-.057.042-.114.084-.173.123Z" transform="translate(0 -101.697)" fill="#f7f7f7"/>
    <path id="Path_19" data-name="Path 19" d="M1.018,68.56l10.651,7.1a2.387,2.387,0,0,0,2.655,0l10.651-7.1a2.28,2.28,0,0,0,1.018-1.9A2.4,2.4,0,0,0,23.6,64.266H2.392A2.4,2.4,0,0,0,0,66.659a2.28,2.28,0,0,0,1.018,1.9Z" fill="#f7f7f7"/>
  </g>
</svg>
