<svg id="phone_483984" xmlns="http://www.w3.org/2000/svg" width="26.542" height="26.542" viewBox="0 0 26.542 26.542">
  <g id="Group_25" data-name="Group 25">
    <g id="Group_24" data-name="Group 24">
      <path id="Path_20" data-name="Path 20" d="M24.412,17.422a15.07,15.07,0,0,1-4.733-.754,2.165,2.165,0,0,0-2.1.444l-2.984,2.253a16.5,16.5,0,0,1-7.416-7.414L9.364,9.042A2.141,2.141,0,0,0,9.89,6.87a15.135,15.135,0,0,1-.756-4.74A2.132,2.132,0,0,0,7,0H2.13A2.132,2.132,0,0,0,0,2.13,24.44,24.44,0,0,0,24.412,26.542a2.132,2.132,0,0,0,2.13-2.13V19.551A2.132,2.132,0,0,0,24.412,17.422Z" fill="#fff"/>
      <path id="Path_21" data-name="Path 21" d="M203.059,21.656h-8.847A2.216,2.216,0,0,0,192,23.871V34.19a.737.737,0,0,0,1.259.521l2.733-2.737h7.067a2.216,2.216,0,0,0,2.212-2.215V23.871A2.216,2.216,0,0,0,203.059,21.656Z" transform="translate(-178.729 -20.159)" fill="#fff"/>
    </g>
  </g>
</svg>
