<svg version="1.2" xmlns="http://www.w3.org/2000/svg" viewBox="0 0 53 26" width="53" height="26">
	<title>right-arrow_545682-svg</title>
	<style>
		.s0 { fill: #f36911 } 
	</style>
	<g id="right-arrow_545682">
		<g id="Group_5">
			<path id="Path_18" class="s0" d="m51.8 11.2l-10.7-10.6c-0.4-0.4-0.9-0.6-1.5-0.6-0.5 0-1 0.2-1.4 0.6-0.4 0.4-0.6 0.9-0.6 1.5 0 0.5 0.2 1 0.6 1.4l7.2 7.1h-43.4c-0.5 0-1 0.3-1.4 0.6-0.4 0.4-0.6 0.9-0.6 1.5 0 0.5 0.2 1.1 0.6 1.4 0.4 0.4 0.9 0.6 1.4 0.6h43.4l-7.2 7.2c-0.4 0.4-0.6 0.9-0.6 1.4 0 0.6 0.2 1.1 0.6 1.5 0.4 0.4 0.9 0.6 1.4 0.6 0.6 0 1.1-0.2 1.5-0.6l10.7-10.7q0.3-0.3 0.4-0.6 0.2-0.4 0.2-0.8 0-0.4-0.2-0.8-0.1-0.4-0.4-0.7z"/>
		</g>
	</g>
</svg>